<svg width="16" height="16" viewBox="0 0 16 16" fill="none" xmlns="http://www.w3.org/2000/svg">
<path d="M3 10.0754C3.90129 8.3253 5.42489 5.49076 6.3691 6.08751C7.54936 6.83344 4.65236 9.12861 6.04721 10.0754C7.44206 11.0221 8.72961 5.22681 9.99571 6.0875C11.2618 6.9482 8.77253 9.21468 9.75966 10.0754C10.5494 10.7639 11.9056 8.34606 13 6.49079" stroke="#6500C3" stroke-width="3.67816" stroke-linecap="round"/>
<path d="M8.5445 8.06061C8.5445 8.39062 8.46327 8.68578 8.33589 8.89596C8.20768 9.10751 8.04078 9.22196 7.87017 9.22196C7.69955 9.22196 7.53265 9.10751 7.40444 8.89596C7.27706 8.68578 7.19584 8.39062 7.19584 8.06061C7.19584 7.7306 7.27706 7.43545 7.40444 7.22527C7.53265 7.01372 7.69955 6.89927 7.87017 6.89927C8.04078 6.89927 8.20768 7.01372 8.33589 7.22527C8.46327 7.43545 8.5445 7.7306 8.5445 8.06061Z" fill="white" stroke="#0F172A" stroke-width="0.149851"/>
<path d="M8.54449 8.06052C8.54449 8.2661 8.49276 8.44865 8.41307 8.57738C8.33267 8.70726 8.23138 8.77232 8.1324 8.77232C8.03342 8.77232 7.93214 8.70726 7.85174 8.57738C7.77205 8.44865 7.72031 8.2661 7.72031 8.06052C7.72031 7.85494 7.77205 7.6724 7.85174 7.54367C7.93214 7.41379 8.03342 7.34873 8.1324 7.34873C8.23138 7.34873 8.33267 7.41379 8.41307 7.54367C8.49276 7.6724 8.54449 7.85494 8.54449 8.06052Z" fill="#0F172A" stroke="#0F172A" stroke-width="0.149851"/>
<path d="M10.4926 8.06061C10.4926 8.39062 10.4113 8.68578 10.284 8.89596C10.1557 9.10751 9.98884 9.22196 9.81823 9.22196C9.64761 9.22196 9.48071 9.10751 9.3525 8.89596C9.22512 8.68578 9.1439 8.39062 9.1439 8.06061C9.1439 7.7306 9.22512 7.43545 9.3525 7.22527C9.48071 7.01372 9.64761 6.89927 9.81823 6.89927C9.98884 6.89927 10.1557 7.01372 10.284 7.22527C10.4113 7.43545 10.4926 7.7306 10.4926 8.06061Z" fill="white" stroke="#0F172A" stroke-width="0.149851"/>
<path d="M10.4926 8.06052C10.4926 8.2661 10.4408 8.44865 10.3611 8.57738C10.2807 8.70726 10.1794 8.77232 10.0805 8.77232C9.98148 8.77232 9.8802 8.70726 9.7998 8.57738C9.72011 8.44865 9.66837 8.2661 9.66837 8.06052C9.66837 7.85494 9.72011 7.6724 9.7998 7.54367C9.8802 7.41379 9.98148 7.34873 10.0805 7.34873C10.1794 7.34873 10.2807 7.41379 10.3611 7.54367C10.4408 7.6724 10.4926 7.85494 10.4926 8.06052Z" fill="#0F172A" stroke="#0F172A" stroke-width="0.149851"/>
</svg>
